<?xml version="1.0" encoding="UTF-8"?>
<!DOCTYPE svg PUBLIC "-//W3C//DTD SVG 1.1//EN" "http://www.w3.org/Graphics/SVG/1.1/DTD/svg11.dtd">
<svg version="1.1" xmlns="http://www.w3.org/2000/svg" xmlns:xlink="http://www.w3.org/1999/xlink" width="800" height="600"  xml:space="preserve" id="pureSwiftBluetooth">
    <!-- Generated by PaintCode - http://www.paintcodeapp.com -->
    <defs>
        <filter id="pureSwiftBluetooth-shadow-outer" filterUnits="userSpaceOnUse">
            <feGaussianBlur stdDeviation="4" />
            <feOffset dx="895" dy="5" result="blur" />
            <feFlood flood-color="rgb(0, 0, 0)" flood-opacity="0.1" />
            <feComposite in2="blur" operator="in" result="colorShadow" />
            <feComposite in="SourceGraphic" in2="colorShadow" operator="over" />
        </filter>
        <linearGradient id="pureSwiftBluetooth-sVGID_1_-bezier18" x1="399.86" y1="109.96" x2="399.86" y2="240.95" gradientUnits="userSpaceOnUse" >
            <stop offset="0" stop-color="rgb(250, 174, 66)" stop-opacity="1" />
            <stop offset="1" stop-color="rgb(239, 62, 49)" stop-opacity="1" />
        </linearGradient>
    </defs>
    <g id="pureSwiftBluetooth-group" clip-path="url(#pureSwiftBluetooth-clip)">
        <clipPath id="pureSwiftBluetooth-clip">
        </clipPath>
        <path id="pureSwiftBluetooth-bezier" fill-rule="evenodd" stroke="none" fill="rgb(146, 146, 146)" filter="url(#pureSwiftBluetooth-shadow-outer)" d="M -326.57,363.61 C -298.08,341.43 -298.09,305.46 -326.57,283.28 L -443.51,192.24 C -472.01,170.05 -518.2,170.06 -546.69,192.24 L -663.63,283.28 C -692.12,305.46 -692.12,341.43 -663.63,363.61 L -546.69,454.66 C -518.2,476.84 -472,476.84 -443.51,454.66 L -326.57,363.61 Z M -326.57,363.61" />
    </g>
    <g id="pureSwiftBluetooth-group2" clip-path="url(#pureSwiftBluetooth-clip3)">
        <clipPath id="pureSwiftBluetooth-clip3">
            <path d="M 189.06,154.66 L 610.73,154.66 610.73,492.23 189.06,492.23 189.06,154.66 Z M 569,364.35 C 597.98,341.79 597.97,305.1 569,282.54 L 452.06,191.5 C 423.23,169.05 376.56,169.05 347.73,191.5 L 230.79,282.54 C 201.82,305.1 201.82,341.8 230.79,364.35 L 347.73,455.4 C 376.56,477.84 423.23,477.84 452.06,455.4 L 569,364.35 Z M 567.85,362.87 L 450.91,453.92 C 422.76,475.83 377.04,475.83 348.88,453.92 L 231.94,362.87 C 203.94,341.07 203.94,305.83 231.94,284.02 L 348.88,192.98 C 377.03,171.06 422.76,171.06 450.91,192.98 L 567.85,284.02 C 595.86,305.83 595.86,341.07 567.85,362.87 Z M 567.85,362.87" />
        </clipPath>
        <g id="pureSwiftBluetooth-group3" clip-path="url(#pureSwiftBluetooth-clip2)">
            <clipPath id="pureSwiftBluetooth-clip2">
                <path d="M 568.43,363.61 C 596.92,341.43 596.91,305.46 568.43,283.28 L 451.49,192.24 C 422.99,170.05 376.8,170.06 348.31,192.24 L 231.37,283.28 C 202.88,305.46 202.88,341.43 231.37,363.61 L 348.31,454.66 C 376.8,476.84 423,476.84 451.49,454.66 L 568.43,363.61 Z M 568.43,363.61" />
            </clipPath>
            <path id="pureSwiftBluetooth-bezier2" fill-rule="evenodd" stroke="none" fill="rgb(82, 153, 218)" d="M 568.43,363.61 C 596.92,341.43 596.91,305.46 568.43,283.28 L 451.49,192.24 C 422.99,170.05 376.8,170.06 348.31,192.24 L 231.37,283.28 C 202.88,305.46 202.88,341.43 231.37,363.61 L 348.31,454.66 C 376.8,476.84 423,476.84 451.49,454.66 L 568.43,363.61 Z M 568.43,363.61" />
        </g>
    </g>
    <g id="pureSwiftBluetooth-group4" clip-path="url(#pureSwiftBluetooth-clip4)">
        <clipPath id="pureSwiftBluetooth-clip4">
            <path d="M 568.43,363.61 C 596.92,341.43 596.91,305.46 568.43,283.28 L 451.49,192.24 C 422.99,170.05 376.8,170.06 348.31,192.24 L 231.37,283.28 C 202.88,305.46 202.88,341.43 231.37,363.61 L 348.31,454.66 C 376.8,476.84 423,476.84 451.49,454.66 L 568.43,363.61 Z M 568.43,363.61" />
        </clipPath>
        <path id="pureSwiftBluetooth-bezier5" stroke="rgb(97, 179, 255)" stroke-width="3.75" stroke-miterlimit="10" fill="none" d="M 568.43,363.61 C 596.92,341.43 596.91,305.46 568.43,283.28 L 451.49,192.24 C 422.99,170.05 376.8,170.06 348.31,192.24 L 231.37,283.28 C 202.88,305.46 202.88,341.43 231.37,363.61 L 348.31,454.66 C 376.8,476.84 423,476.84 451.49,454.66 L 568.43,363.61 Z M 568.43,363.61" />
    </g>
    <g id="pureSwiftBluetooth-group5" clip-path="url(#pureSwiftBluetooth-clip5)">
        <clipPath id="pureSwiftBluetooth-clip5">
        </clipPath>
        <path id="pureSwiftBluetooth-bezier7" fill-rule="evenodd" stroke="none" fill="rgb(146, 146, 146)" filter="url(#pureSwiftBluetooth-shadow-outer)" d="M -326.57,300.31 C -298.08,278.13 -298.09,242.16 -326.57,219.98 L -443.51,128.94 C -472.01,106.75 -518.2,106.76 -546.69,128.94 L -663.63,219.98 C -692.12,242.16 -692.12,278.13 -663.63,300.31 L -546.69,391.36 C -518.2,413.54 -472,413.54 -443.51,391.36 L -326.57,300.31 Z M -326.57,300.31" />
    </g>
    <g id="pureSwiftBluetooth-group6" clip-path="url(#pureSwiftBluetooth-clip6)">
        <clipPath id="pureSwiftBluetooth-clip6">
            <path d="M 568.43,300.31 C 596.92,278.13 596.91,242.16 568.43,219.98 L 451.49,128.94 C 422.99,106.75 376.8,106.76 348.31,128.94 L 231.37,219.98 C 202.88,242.16 202.88,278.13 231.37,300.31 L 348.31,391.36 C 376.8,413.54 423,413.54 451.49,391.36 L 568.43,300.31 Z M 568.43,300.31" />
        </clipPath>
        <path id="pureSwiftBluetooth-bezier8" fill-rule="evenodd" stroke="none" fill="rgb(0, 96, 169)" d="M 568.43,300.31 C 596.92,278.13 596.91,242.16 568.43,219.98 L 451.49,128.94 C 422.99,106.75 376.8,106.76 348.31,128.94 L 231.37,219.98 C 202.88,242.16 202.88,278.13 231.37,300.31 L 348.31,391.36 C 376.8,413.54 423,413.54 451.49,391.36 L 568.43,300.31 Z M 568.43,300.31" />
    </g>
    <g id="pureSwiftBluetooth-group7" clip-path="url(#pureSwiftBluetooth-clip7)">
        <clipPath id="pureSwiftBluetooth-clip7">
            <path d="M 568.43,300.31 C 596.92,278.13 596.91,242.16 568.43,219.98 L 451.49,128.94 C 422.99,106.75 376.8,106.76 348.31,128.94 L 231.37,219.98 C 202.88,242.16 202.88,278.13 231.37,300.31 L 348.31,391.36 C 376.8,413.54 423,413.54 451.49,391.36 L 568.43,300.31 Z M 568.43,300.31" />
        </clipPath>
        <path id="pureSwiftBluetooth-bezier10" stroke="none" fill="none" d="M 568.43,300.31 C 596.92,278.13 596.91,242.16 568.43,219.98 L 451.49,128.94 C 422.99,106.75 376.8,106.76 348.31,128.94 L 231.37,219.98 C 202.88,242.16 202.88,278.13 231.37,300.31 L 348.31,391.36 C 376.8,413.54 423,413.54 451.49,391.36 L 568.43,300.31 Z M 568.43,300.31" />
    </g>
    <g id="pureSwiftBluetooth-group8" clip-path="url(#pureSwiftBluetooth-clip8)">
        <clipPath id="pureSwiftBluetooth-clip8">
        </clipPath>
        <path id="pureSwiftBluetooth-bezier12" fill-rule="evenodd" stroke="none" fill="rgb(146, 146, 146)" filter="url(#pureSwiftBluetooth-shadow-outer)" d="M -326.57,237.01 C -298.08,214.83 -298.09,178.86 -326.57,156.68 L -443.51,65.64 C -472.01,43.45 -518.2,43.46 -546.69,65.64 L -663.63,156.68 C -692.12,178.86 -692.12,214.83 -663.63,237.01 L -546.69,328.06 C -518.2,350.24 -472,350.24 -443.51,328.06 L -326.57,237.01 Z M -326.57,237.01" />
    </g>
    <g id="pureSwiftBluetooth-group9" clip-path="url(#pureSwiftBluetooth-clip10)">
        <clipPath id="pureSwiftBluetooth-clip10">
            <path d="M 189.06,28.06 L 610.73,28.06 610.73,365.63 189.06,365.63 189.06,28.06 Z M 569,237.75 C 597.98,215.19 597.97,178.5 569,155.94 L 452.06,64.9 C 423.23,42.45 376.56,42.45 347.73,64.9 L 230.79,155.94 C 201.82,178.5 201.82,215.2 230.79,237.75 L 347.73,328.8 C 376.56,351.24 423.23,351.24 452.06,328.8 L 569,237.75 Z M 567.85,236.27 L 450.91,327.32 C 422.76,349.23 377.04,349.23 348.88,327.32 L 231.94,236.27 C 203.94,214.47 203.94,179.23 231.94,157.42 L 348.88,66.38 C 377.03,44.46 422.76,44.46 450.91,66.38 L 567.85,157.42 C 595.86,179.23 595.86,214.47 567.85,236.27 Z M 567.85,236.27" />
        </clipPath>
        <g id="pureSwiftBluetooth-group10" clip-path="url(#pureSwiftBluetooth-clip9)">
            <clipPath id="pureSwiftBluetooth-clip9">
                <path d="M 568.43,237.01 C 596.92,214.83 596.91,178.86 568.43,156.68 L 451.49,65.64 C 422.99,43.45 376.8,43.46 348.31,65.64 L 231.37,156.68 C 202.88,178.86 202.88,214.83 231.37,237.01 L 348.31,328.06 C 376.8,350.24 423,350.24 451.49,328.06 L 568.43,237.01 Z M 568.43,237.01" />
            </clipPath>
            <path id="pureSwiftBluetooth-bezier13" fill-rule="evenodd" stroke="none" fill="rgb(255, 255, 255)" d="M 568.43,237.01 C 596.92,214.83 596.91,178.86 568.43,156.68 L 451.49,65.64 C 422.99,43.45 376.8,43.46 348.31,65.64 L 231.37,156.68 C 202.88,178.86 202.88,214.83 231.37,237.01 L 348.31,328.06 C 376.8,350.24 423,350.24 451.49,328.06 L 568.43,237.01 Z M 568.43,237.01" />
        </g>
    </g>
    <g id="pureSwiftBluetooth-group11" clip-path="url(#pureSwiftBluetooth-clip11)">
        <clipPath id="pureSwiftBluetooth-clip11">
            <path d="M 568.43,237.01 C 596.92,214.83 596.91,178.86 568.43,156.68 L 451.49,65.64 C 422.99,43.45 376.8,43.46 348.31,65.64 L 231.37,156.68 C 202.88,178.86 202.88,214.83 231.37,237.01 L 348.31,328.06 C 376.8,350.24 423,350.24 451.49,328.06 L 568.43,237.01 Z M 568.43,237.01" />
        </clipPath>
        <path id="pureSwiftBluetooth-bezier16" stroke="rgb(230, 230, 230)" stroke-width="3.75" stroke-miterlimit="10" fill="none" d="M 568.43,237.01 C 596.92,214.83 596.91,178.86 568.43,156.68 L 451.49,65.64 C 422.99,43.45 376.8,43.46 348.31,65.64 L 231.37,156.68 C 202.88,178.86 202.88,214.83 231.37,237.01 L 348.31,328.06 C 376.8,350.24 423,350.24 451.49,328.06 L 568.43,237.01 Z M 568.43,237.01" />
    </g>
    <path id="pureSwiftBluetooth-bezier18" fill-rule="evenodd" stroke="none" fill="url(#pureSwiftBluetooth-sVGID_1_-bezier18)" d="M 417.28,109.96 C 483.09,153.88 461.75,202.14 461.75,202.14 461.75,202.14 480.44,222.83 472.93,240.95 472.93,240.95 465.17,228.29 452.3,228.29 439.85,228.29 432.49,240.95 407.37,240.95 351.49,240.95 325,195.16 325,195.16 375.36,227.72 409.76,204.65 409.76,204.65 387.03,191.75 338.8,130.01 338.8,130.01 380.84,165.11 398.98,174.32 398.98,174.32 388.07,165.57 357.67,122.65 357.67,122.65 382,146.78 430.36,180.42 430.36,180.42 444.22,143.24 417.28,109.96 417.28,109.96 L 417.28,109.96 Z M 417.28,109.96" />
    
    <text  fill="rgb(163, 163, 163)" font-family="HelveticaNeue-Thin, 'Helvetica Neue', Helvetica, Arial, sans-serif" font-size="48" x="313.62" y="518" text-anchor="middle"><tspan x="408.02" y="563">Bluetooth</tspan></text>
</svg>
