<?xml version="1.0" encoding="UTF-8"?>
<!DOCTYPE svg PUBLIC "-//W3C//DTD SVG 1.1//EN" "http://www.w3.org/Graphics/SVG/1.1/DTD/svg11.dtd">
<svg version="1.1" xmlns="http://www.w3.org/2000/svg" xmlns:xlink="http://www.w3.org/1999/xlink" width="2000" height="600"  xml:space="preserve" id="pureSwiftBluetooth">
    <!-- Generated by PaintCode - http://www.paintcodeapp.com -->
    <defs>
        <filter id="pureSwiftBluetooth-shadow-outer" filterUnits="userSpaceOnUse">
            <feGaussianBlur stdDeviation="4" />
            <feOffset dx="895" dy="5" result="blur" />
            <feFlood flood-color="rgb(0, 0, 0)" flood-opacity="0.1" />
            <feComposite in2="blur" operator="in" result="colorShadow" />
            <feComposite in="SourceGraphic" in2="colorShadow" operator="over" />
        </filter>
        <linearGradient id="pureSwiftBluetooth-sVGID_1_-bezier18" x1="994.86" y1="107.96" x2="994.86" y2="238.95" gradientUnits="userSpaceOnUse" >
            <stop offset="0" stop-color="rgb(250, 174, 66)" stop-opacity="1" />
            <stop offset="1" stop-color="rgb(239, 62, 49)" stop-opacity="1" />
        </linearGradient>
    </defs>
    <g id="pureSwiftBluetooth-group12">
        <g id="pureSwiftBluetooth-group" clip-path="url(#pureSwiftBluetooth-clip)">
            <clipPath id="pureSwiftBluetooth-clip">
            </clipPath>
            <path id="pureSwiftBluetooth-bezier" fill-rule="evenodd" stroke="none" fill="rgb(146, 146, 146)" filter="url(#pureSwiftBluetooth-shadow-outer)" d="M 268.43,361.61 C 296.92,339.43 296.91,303.46 268.43,281.28 L 151.49,190.24 C 122.99,168.05 76.8,168.06 48.31,190.24 L -68.63,281.28 C -97.12,303.46 -97.12,339.43 -68.63,361.61 L 48.31,452.66 C 76.8,474.84 123,474.84 151.49,452.66 L 268.43,361.61 Z M 268.43,361.61" />
        </g>
        <g id="pureSwiftBluetooth-group2" clip-path="url(#pureSwiftBluetooth-clip3)">
            <clipPath id="pureSwiftBluetooth-clip3">
                <path d="M 784.06,152.66 L 1205.73,152.66 1205.73,490.23 784.06,490.23 784.06,152.66 Z M 1164,362.35 C 1192.98,339.79 1192.97,303.1 1164,280.54 L 1047.06,189.5 C 1018.23,167.05 971.56,167.05 942.73,189.5 L 825.79,280.54 C 796.82,303.1 796.82,339.8 825.79,362.35 L 942.73,453.4 C 971.56,475.84 1018.23,475.84 1047.06,453.4 L 1164,362.35 Z M 1162.85,360.87 L 1045.91,451.92 C 1017.76,473.83 972.03,473.83 943.88,451.92 L 826.94,360.87 C 798.94,339.07 798.94,303.83 826.94,282.02 L 943.88,190.98 C 972.03,169.06 1017.76,169.06 1045.91,190.98 L 1162.85,282.02 C 1190.86,303.83 1190.86,339.07 1162.85,360.87 Z M 1162.85,360.87" />
            </clipPath>
            <g id="pureSwiftBluetooth-group3" clip-path="url(#pureSwiftBluetooth-clip2)">
                <clipPath id="pureSwiftBluetooth-clip2">
                    <path d="M 1163.43,361.61 C 1191.92,339.43 1191.91,303.46 1163.43,281.28 L 1046.49,190.24 C 1017.99,168.05 971.8,168.06 943.31,190.24 L 826.37,281.28 C 797.88,303.46 797.88,339.43 826.37,361.61 L 943.31,452.66 C 971.8,474.84 1018,474.84 1046.49,452.66 L 1163.43,361.61 Z M 1163.43,361.61" />
                </clipPath>
                <path id="pureSwiftBluetooth-bezier2" fill-rule="evenodd" stroke="none" fill="rgb(82, 153, 218)" d="M 1163.43,361.61 C 1191.92,339.43 1191.91,303.46 1163.43,281.28 L 1046.49,190.24 C 1017.99,168.05 971.8,168.06 943.31,190.24 L 826.37,281.28 C 797.88,303.46 797.88,339.43 826.37,361.61 L 943.31,452.66 C 971.8,474.84 1018,474.84 1046.49,452.66 L 1163.43,361.61 Z M 1163.43,361.61" />
            </g>
        </g>
        <g id="pureSwiftBluetooth-group4" clip-path="url(#pureSwiftBluetooth-clip4)">
            <clipPath id="pureSwiftBluetooth-clip4">
                <path d="M 1163.43,361.61 C 1191.92,339.43 1191.91,303.46 1163.43,281.28 L 1046.49,190.24 C 1017.99,168.05 971.8,168.06 943.31,190.24 L 826.37,281.28 C 797.88,303.46 797.88,339.43 826.37,361.61 L 943.31,452.66 C 971.8,474.84 1018,474.84 1046.49,452.66 L 1163.43,361.61 Z M 1163.43,361.61" />
            </clipPath>
            <path id="pureSwiftBluetooth-bezier5" stroke="rgb(97, 179, 255)" stroke-width="3.75" stroke-miterlimit="10" fill="none" d="M 1163.43,361.61 C 1191.92,339.43 1191.91,303.46 1163.43,281.28 L 1046.49,190.24 C 1017.99,168.05 971.8,168.06 943.31,190.24 L 826.37,281.28 C 797.88,303.46 797.88,339.43 826.37,361.61 L 943.31,452.66 C 971.8,474.84 1018,474.84 1046.49,452.66 L 1163.43,361.61 Z M 1163.43,361.61" />
        </g>
        <g id="pureSwiftBluetooth-group5" clip-path="url(#pureSwiftBluetooth-clip5)">
            <clipPath id="pureSwiftBluetooth-clip5">
            </clipPath>
            <path id="pureSwiftBluetooth-bezier7" fill-rule="evenodd" stroke="none" fill="rgb(146, 146, 146)" filter="url(#pureSwiftBluetooth-shadow-outer)" d="M 268.43,298.31 C 296.92,276.13 296.91,240.16 268.43,217.98 L 151.49,126.94 C 122.99,104.75 76.8,104.76 48.31,126.94 L -68.63,217.98 C -97.12,240.16 -97.12,276.13 -68.63,298.31 L 48.31,389.36 C 76.8,411.54 123,411.54 151.49,389.36 L 268.43,298.31 Z M 268.43,298.31" />
        </g>
        <g id="pureSwiftBluetooth-group6" clip-path="url(#pureSwiftBluetooth-clip6)">
            <clipPath id="pureSwiftBluetooth-clip6">
                <path d="M 1163.43,298.31 C 1191.92,276.13 1191.91,240.16 1163.43,217.98 L 1046.49,126.94 C 1017.99,104.75 971.8,104.76 943.31,126.94 L 826.37,217.98 C 797.88,240.16 797.88,276.13 826.37,298.31 L 943.31,389.36 C 971.8,411.54 1018,411.54 1046.49,389.36 L 1163.43,298.31 Z M 1163.43,298.31" />
            </clipPath>
            <path id="pureSwiftBluetooth-bezier8" fill-rule="evenodd" stroke="none" fill="rgb(0, 96, 169)" d="M 1163.43,298.31 C 1191.92,276.13 1191.91,240.16 1163.43,217.98 L 1046.49,126.94 C 1017.99,104.75 971.8,104.76 943.31,126.94 L 826.37,217.98 C 797.88,240.16 797.88,276.13 826.37,298.31 L 943.31,389.36 C 971.8,411.54 1018,411.54 1046.49,389.36 L 1163.43,298.31 Z M 1163.43,298.31" />
        </g>
        <g id="pureSwiftBluetooth-group7" clip-path="url(#pureSwiftBluetooth-clip7)">
            <clipPath id="pureSwiftBluetooth-clip7">
                <path d="M 1163.43,298.31 C 1191.92,276.13 1191.91,240.16 1163.43,217.98 L 1046.49,126.94 C 1017.99,104.75 971.8,104.76 943.31,126.94 L 826.37,217.98 C 797.88,240.16 797.88,276.13 826.37,298.31 L 943.31,389.36 C 971.8,411.54 1018,411.54 1046.49,389.36 L 1163.43,298.31 Z M 1163.43,298.31" />
            </clipPath>
            <path id="pureSwiftBluetooth-bezier10" stroke="none" fill="none" d="M 1163.43,298.31 C 1191.92,276.13 1191.91,240.16 1163.43,217.98 L 1046.49,126.94 C 1017.99,104.75 971.8,104.76 943.31,126.94 L 826.37,217.98 C 797.88,240.16 797.88,276.13 826.37,298.31 L 943.31,389.36 C 971.8,411.54 1018,411.54 1046.49,389.36 L 1163.43,298.31 Z M 1163.43,298.31" />
        </g>
        <g id="pureSwiftBluetooth-group8" clip-path="url(#pureSwiftBluetooth-clip8)">
            <clipPath id="pureSwiftBluetooth-clip8">
            </clipPath>
            <path id="pureSwiftBluetooth-bezier12" fill-rule="evenodd" stroke="none" fill="rgb(146, 146, 146)" filter="url(#pureSwiftBluetooth-shadow-outer)" d="M 268.43,235.01 C 296.92,212.83 296.91,176.86 268.43,154.68 L 151.49,63.64 C 122.99,41.45 76.8,41.46 48.31,63.64 L -68.63,154.68 C -97.12,176.86 -97.12,212.83 -68.63,235.01 L 48.31,326.06 C 76.8,348.24 123,348.24 151.49,326.06 L 268.43,235.01 Z M 268.43,235.01" />
        </g>
        <g id="pureSwiftBluetooth-group9" clip-path="url(#pureSwiftBluetooth-clip10)">
            <clipPath id="pureSwiftBluetooth-clip10">
                <path d="M 784.06,26.06 L 1205.73,26.06 1205.73,363.63 784.06,363.63 784.06,26.06 Z M 1164,235.75 C 1192.98,213.19 1192.97,176.5 1164,153.94 L 1047.06,62.9 C 1018.23,40.45 971.56,40.45 942.73,62.9 L 825.79,153.94 C 796.82,176.5 796.82,213.2 825.79,235.75 L 942.73,326.8 C 971.56,349.24 1018.23,349.24 1047.06,326.8 L 1164,235.75 Z M 1162.85,234.27 L 1045.91,325.32 C 1017.76,347.23 972.03,347.23 943.88,325.32 L 826.94,234.27 C 798.94,212.47 798.94,177.23 826.94,155.42 L 943.88,64.38 C 972.03,42.46 1017.76,42.46 1045.91,64.38 L 1162.85,155.42 C 1190.86,177.23 1190.86,212.47 1162.85,234.27 Z M 1162.85,234.27" />
            </clipPath>
            <g id="pureSwiftBluetooth-group10" clip-path="url(#pureSwiftBluetooth-clip9)">
                <clipPath id="pureSwiftBluetooth-clip9">
                    <path d="M 1163.43,235.01 C 1191.92,212.83 1191.91,176.86 1163.43,154.68 L 1046.49,63.64 C 1017.99,41.45 971.8,41.46 943.31,63.64 L 826.37,154.68 C 797.88,176.86 797.88,212.83 826.37,235.01 L 943.31,326.06 C 971.8,348.24 1018,348.24 1046.49,326.06 L 1163.43,235.01 Z M 1163.43,235.01" />
                </clipPath>
                <path id="pureSwiftBluetooth-bezier13" fill-rule="evenodd" stroke="none" fill="rgb(255, 255, 255)" d="M 1163.43,235.01 C 1191.92,212.83 1191.91,176.86 1163.43,154.68 L 1046.49,63.64 C 1017.99,41.45 971.8,41.46 943.31,63.64 L 826.37,154.68 C 797.88,176.86 797.88,212.83 826.37,235.01 L 943.31,326.06 C 971.8,348.24 1018,348.24 1046.49,326.06 L 1163.43,235.01 Z M 1163.43,235.01" />
            </g>
        </g>
        <g id="pureSwiftBluetooth-group11" clip-path="url(#pureSwiftBluetooth-clip11)">
            <clipPath id="pureSwiftBluetooth-clip11">
                <path d="M 1163.43,235.01 C 1191.92,212.83 1191.91,176.86 1163.43,154.68 L 1046.49,63.64 C 1017.99,41.45 971.8,41.46 943.31,63.64 L 826.37,154.68 C 797.88,176.86 797.88,212.83 826.37,235.01 L 943.31,326.06 C 971.8,348.24 1018,348.24 1046.49,326.06 L 1163.43,235.01 Z M 1163.43,235.01" />
            </clipPath>
            <path id="pureSwiftBluetooth-bezier16" stroke="rgb(230, 230, 230)" stroke-width="3.75" stroke-miterlimit="10" fill="none" d="M 1163.43,235.01 C 1191.92,212.83 1191.91,176.86 1163.43,154.68 L 1046.49,63.64 C 1017.99,41.45 971.8,41.46 943.31,63.64 L 826.37,154.68 C 797.88,176.86 797.88,212.83 826.37,235.01 L 943.31,326.06 C 971.8,348.24 1018,348.24 1046.49,326.06 L 1163.43,235.01 Z M 1163.43,235.01" />
        </g>
        <path id="pureSwiftBluetooth-bezier18" fill-rule="evenodd" stroke="none" fill="url(#pureSwiftBluetooth-sVGID_1_-bezier18)" d="M 1012.28,107.96 C 1078.09,151.88 1056.75,200.14 1056.75,200.14 1056.75,200.14 1075.44,220.83 1067.93,238.95 1067.93,238.95 1060.17,226.29 1047.3,226.29 1034.85,226.29 1027.49,238.95 1002.37,238.95 946.49,238.95 920,193.16 920,193.16 970.36,225.72 1004.76,202.65 1004.76,202.65 982.03,189.75 933.8,128.01 933.8,128.01 975.84,163.11 993.98,172.32 993.98,172.32 983.07,163.57 952.67,120.65 952.67,120.65 977,144.78 1025.36,178.42 1025.36,178.42 1039.22,141.24 1012.28,107.96 1012.28,107.96 L 1012.28,107.96 Z M 1012.28,107.96" />
        
        <text  fill="rgb(163, 163, 163)" font-family="HelveticaNeue-Thin, 'Helvetica Neue', Helvetica, Arial, sans-serif" font-size="48" x="908.62" y="516" text-anchor="middle"><tspan x="1003.02" y="561">Bluetooth</tspan></text>
    </g>
</svg>
